{"title":"Secret City - S01E06 - The Light On The Hill","uid":15205445,"size":423874614,"categoryP":"video","categoryS":"tv_shows","magnet":"?xt=urn:btih:eb11b4f8fe9f691cd6aaa9cb6a8e9e7fdb6e9e31&amp;dn=Secret+City+-+S01E06+-+The+Light+On+The+Hill&amp;tr=udp%3A%2F%2Ftracker.leechers-paradise.org%3A6969&amp;tr=udp%3A%2F%2Fzer0day.ch%3A1337&amp;tr=udp%3A%2F%2Fopen.demonii.com%3A1337&amp;tr=udp%3A%2F%2Ftracker.coppersurfer.tk%3A6969&amp;tr=udp%3A%2F%2Fexodus.desync.com%3A6969","seeders":21,"leechers":0,"uploader":"Bullrout","files":1,"time":1467621016,"description":"Secret City - S01E06 - The Light On The Hill\r\n\r\nHarriet's story on missing Chinese dissidents may have embarrassed Beijing into returning Sabine Hobbs to Canberra, but the connections to Australian intelligence and the murder remain hidden.\r\n\r\nComplete name : Secret City - S01E06 - The Light On The Hill.mp4\r\nFormat : MPEG-4\r\nFormat profile : Base Media / Version 2\r\nCodec ID : mp42 (mp42/isom/avc1)\r\nFile size : 404 MiB\r\nDuration : 51mn 49s\r\nOverall bit rate mode : Variable\r\nOverall bit rate : 1 091 Kbps\r\n\r\nVideo\r\nID : 2\r\nFormat : AVC\r\nFormat/Info : Advanced Video Codec\r\nFormat profile :   \r\nFormat settings, CABAC : Yes\r\nFormat settings, ReFrames : 3 frames\r\nCodec ID : avc1\r\nCodec ID/Info : Advanced Video Coding\r\nDuration : 51mn 49s\r\nBit rate mode : Variable\r\nBit rate : 959 Kbps\r\nMaximum bit rate : 1 000 Kbps\r\nWidth : 720 pixels\r\nHeight : 360 pixels\r\nDisplay aspect ratio : 2.000\r\nFrame rate mode : Constant\r\nFrame rate : 25.000 fps\r\nStandard : PAL\r\nColor space : YUV\r\nChroma subsampling : 4:2:0\r\nBit depth : 8 bits\r\nScan type : Progressive\r\nBits/(Pixel*Frame) : 0.148\r\nStream size : 356 MiB (88%)\r\nWriting library : x264 core 112\r\nColor range : Limited\r\nColor primaries : BT.601 PAL\r\nTransfer characteristics : BT.470 System B, BT.470 System G\r\nMatrix coefficients : BT.601\r\n\r\nAudio\r\nID : 1\r\nFormat : AAC\r\nFormat/Info : Advanced Audio Codec\r\nFormat profile : LC\r\nCodec ID : 40\r\nDuration : 51mn 49s\r\nBit rate mode : Variable\r\nBit rate : 128 Kbps\r\nMaximum bit rate : 576 Kbps\r\nChannel(s) : 2 channels\r\nChannel positions : Front: L R\r\nSampling rate : 48.0 KHz\r\nFrame rate : 46.875 fps (1024 spf)\r\nCompression mode : Lossy\r\nStream size : 47.5 MiB (12%)","torrent":{"xt":"urn:btih:eb11b4f8fe9f691cd6aaa9cb6a8e9e7fdb6e9e31","amp;dn":"Secret+City+-+S01E06+-+The+Light+On+The+Hill","amp;tr":["udp%3A%2F%2Ftracker.leechers-paradise.org%3A6969","udp%3A%2F%2Fzer0day.ch%3A1337","udp%3A%2F%2Fopen.demonii.com%3A1337","udp%3A%2F%2Ftracker.coppersurfer.tk%3A6969","udp%3A%2F%2Fexodus.desync.com%3A6969"],"infoHash":"eb11b4f8fe9f691cd6aaa9cb6a8e9e7fdb6e9e31","infoHashBuffer":{"type":"Buffer","data":[235,17,180,248,254,159,105,28,214,170,169,203,106,142,158,127,219,110,158,49]},"announce":[],"urlList":[]}}